# 3ds Max Wavefront OBJ Exporter v0.97b - (c)2007 guruware
# File Created: 13.10.2017 18:49:16

mtllib JH.mtl

#
# object JH
#

v  1.8050 0.2750 1.0989
v  -1.8050 0.2750 1.0989
v  -1.8050 0.0102 1.0989
v  1.8050 0.0102 1.0989
v  -1.8050 -0.0000 -1.1198
v  1.8050 -0.0000 -1.1198
v  1.8050 -0.0000 1.0886
v  -1.8050 -0.0000 1.0886
v  1.8050 0.2852 -1.1198
v  1.8050 0.2852 1.0886
v  -1.8050 0.2852 -1.1198
v  -1.8050 0.2852 1.0886
# 12 vertices

vn 0.0000 -0.0000 1.0000
vn 0.0000 -1.0000 -0.0000
vn 1.0000 0.0000 -0.0000
vn 0.0000 1.0000 0.0000
vn -1.0000 0.0000 -0.0000
vn 0.0000 -0.7071 0.7071
vn 0.0000 0.7071 0.7071
vn 0.0000 0.0000 -1.0000
# 8 vertex normals

vt 0.7274 0.0030 0.0000
vt 0.7274 0.6757 0.0000
vt 0.6781 0.6757 0.0000
vt 0.6781 0.0030 0.0000
vt 0.6764 0.4169 0.0000
vt 0.0030 0.4169 0.0000
vt 0.0030 0.0049 0.0000
vt 0.6764 0.0049 0.0000
vt 0.6761 0.9458 0.0000
vt 0.6761 0.9951 0.0000
vt 0.6742 0.9970 0.0000
vt 0.2626 0.9970 0.0000
vt 0.2626 0.9439 0.0000
vt 0.6742 0.9439 0.0000
vt 0.6764 0.8321 0.0000
vt 0.0030 0.8321 0.0000
vt 0.0030 0.4201 0.0000
vt 0.6764 0.4201 0.0000
vt 0.6761 0.8902 0.0000
vt 0.6761 0.9395 0.0000
vt 0.6742 0.9414 0.0000
vt 0.2626 0.9414 0.0000
vt 0.2626 0.8883 0.0000
vt 0.6742 0.8883 0.0000
vt 0.6764 0.0030 0.0000
vt 0.0030 0.0030 0.0000
vt 0.6764 0.4182 0.0000
vt 0.0030 0.4182 0.0000
vt 0.6761 0.8867 0.0000
vt 0.0033 0.8867 0.0000
vt 0.0033 0.8335 0.0000
vt 0.6761 0.8335 0.0000
# 32 texture coords

g JH
usemtl JH
s 1
f 1/1/1 2/2/1 3/3/1 4/4/1 
f 5/5/2 6/6/2 7/7/2 8/8/2 
s 2
f 1/9/3 4/10/3 7/11/3 6/12/3 9/13/3 10/14/3 
s 1
f 9/15/4 11/16/4 12/17/4 10/18/4 
s 2
f 3/19/5 2/20/5 12/21/5 11/22/5 5/23/5 8/24/5 
s 4
f 3/25/6 8/8/6 7/7/6 4/26/6 
f 1/27/7 10/18/7 12/17/7 2/28/7 
s off
f 11/29/8 9/30/8 6/31/8 5/32/8 
# 8 polygons

